# xmcd
#
# Track frame offsets: 
#        150
#        11298
#        24045
#        38788
#        53030
#        65730
#        78917
#        91001
#        104211
#        116824
#        129365
#        144190
#        157238
#        171119
#        184799
#        199233
#
# Disc length: 2841 seconds
#
# Revision: 0
# Processed by: cddbd v1.5.2PL0 Copyright (c) Steve Scherf et al.
# Submitted via: ExactAudioCopy v0.95b4
#
DISCID=cf0b1710
DTITLE=Leroy Foster - 1948-1952
DYEAR=2005
DGENRE=Blues
TTITLE0=Locked Out Boogie
TTITLE1=Shady Grove Blues
TTITLE2=My Head Can't Rest Anymore
TTITLE3=Take A Little Walk With Me
TTITLE4=Bad Actin' Woman
TTITLE5=I Just Keep Loving Her
TTITLE6=Boll Weevil
TTITLE7=Rollin' And Tumblin' - Part 1
TTITLE8=Rollin' And Tumblin' - Part 2
TTITLE9=Red Headed Woman
TTITLE10=Muskadine Blues (Take A Walk With Me)
TTITLE11=Moonshine Blues (Moonshine Baby)
TTITLE12=Pet Rabbit
TTITLE13=Louella
TTITLE14=Late Hours At Midnight
TTITLE15=Blues Is Killin' Me
EXTD=
EXTT0=
EXTT1=
EXTT2=
EXTT3=
EXTT4=
EXTT5=
EXTT6=
EXTT7=
EXTT8=
EXTT9=
EXTT10=
EXTT11=
EXTT12=
EXTT13=
EXTT14=
EXTT15=
PLAYORDER=
